<mxfile host="app.diagrams.net" modified="2021-04-09T05:34:58.696Z" agent="5.0 (Windows NT 10.0; Win64; x64) AppleWebKit/537.36 (KHTML, like Gecko) Chrome/89.0.4389.114 Safari/537.36" etag="7o46ys9-pxEoc4ArAfvg" version="14.4.4" type="github">
  <diagram id="chmDVJkeQqaBG_FEaTal" name="Page-1">
    <mxGraphModel dx="863" dy="450" grid="1" gridSize="10" guides="1" tooltips="1" connect="1" arrows="1" fold="1" page="1" pageScale="1" pageWidth="827" pageHeight="1169" math="0" shadow="0">
      <root>
        <mxCell id="0" />
        <mxCell id="1" parent="0" />
        <mxCell id="Vge2jC_jCrwLIg9ijGN7-1" value="" style="rounded=0;whiteSpace=wrap;html=1;" vertex="1" parent="1">
          <mxGeometry x="60" y="30" width="120" height="60" as="geometry" />
        </mxCell>
        <mxCell id="Vge2jC_jCrwLIg9ijGN7-2" value="" style="rounded=0;whiteSpace=wrap;html=1;" vertex="1" parent="1">
          <mxGeometry x="370" y="30" width="120" height="60" as="geometry" />
        </mxCell>
        <mxCell id="Vge2jC_jCrwLIg9ijGN7-3" value="" style="rounded=0;whiteSpace=wrap;html=1;" vertex="1" parent="1">
          <mxGeometry x="640" y="20" width="120" height="60" as="geometry" />
        </mxCell>
        <mxCell id="Vge2jC_jCrwLIg9ijGN7-4" value="" style="endArrow=none;dashed=1;html=1;" edge="1" parent="1">
          <mxGeometry width="50" height="50" relative="1" as="geometry">
            <mxPoint x="120" y="450" as="sourcePoint" />
            <mxPoint x="120" y="90" as="targetPoint" />
          </mxGeometry>
        </mxCell>
        <mxCell id="Vge2jC_jCrwLIg9ijGN7-5" value="" style="endArrow=none;dashed=1;html=1;" edge="1" parent="1">
          <mxGeometry width="50" height="50" relative="1" as="geometry">
            <mxPoint x="699.5" y="440" as="sourcePoint" />
            <mxPoint x="700" y="80" as="targetPoint" />
          </mxGeometry>
        </mxCell>
        <mxCell id="Vge2jC_jCrwLIg9ijGN7-6" value="" style="endArrow=none;dashed=1;html=1;" edge="1" parent="1" source="Vge2jC_jCrwLIg9ijGN7-13">
          <mxGeometry width="50" height="50" relative="1" as="geometry">
            <mxPoint x="429.5" y="450" as="sourcePoint" />
            <mxPoint x="429.5" y="90" as="targetPoint" />
          </mxGeometry>
        </mxCell>
        <mxCell id="Vge2jC_jCrwLIg9ijGN7-7" value="ADMIN" style="text;html=1;strokeColor=none;fillColor=none;align=center;verticalAlign=middle;whiteSpace=wrap;rounded=0;" vertex="1" parent="1">
          <mxGeometry x="650" y="40" width="90" height="30" as="geometry" />
        </mxCell>
        <mxCell id="Vge2jC_jCrwLIg9ijGN7-8" value="Voting System" style="text;html=1;strokeColor=none;fillColor=none;align=center;verticalAlign=middle;whiteSpace=wrap;rounded=0;" vertex="1" parent="1">
          <mxGeometry x="390" y="50" width="80" height="30" as="geometry" />
        </mxCell>
        <mxCell id="Vge2jC_jCrwLIg9ijGN7-9" value="VOTER" style="text;html=1;strokeColor=none;fillColor=none;align=center;verticalAlign=middle;whiteSpace=wrap;rounded=0;" vertex="1" parent="1">
          <mxGeometry x="90" y="50" width="60" height="30" as="geometry" />
        </mxCell>
        <mxCell id="Vge2jC_jCrwLIg9ijGN7-10" value="" style="endArrow=classic;html=1;" edge="1" parent="1">
          <mxGeometry width="50" height="50" relative="1" as="geometry">
            <mxPoint x="120" y="150" as="sourcePoint" />
            <mxPoint x="430" y="150" as="targetPoint" />
            <Array as="points" />
          </mxGeometry>
        </mxCell>
        <mxCell id="Vge2jC_jCrwLIg9ijGN7-11" value="Enter Login and Password" style="text;html=1;strokeColor=none;fillColor=none;align=center;verticalAlign=middle;whiteSpace=wrap;rounded=0;" vertex="1" parent="1">
          <mxGeometry x="170" y="120" width="200" height="20" as="geometry" />
        </mxCell>
        <mxCell id="Vge2jC_jCrwLIg9ijGN7-12" value="" style="endArrow=classic;html=1;" edge="1" parent="1">
          <mxGeometry width="50" height="50" relative="1" as="geometry">
            <mxPoint x="426.25" y="210" as="sourcePoint" />
            <mxPoint x="120" y="210" as="targetPoint" />
            <Array as="points">
              <mxPoint x="258.75" y="210" />
            </Array>
          </mxGeometry>
        </mxCell>
        <mxCell id="Vge2jC_jCrwLIg9ijGN7-13" value="" style="html=1;points=[];perimeter=orthogonalPerimeter;" vertex="1" parent="1">
          <mxGeometry x="425" y="150" width="10" height="60" as="geometry" />
        </mxCell>
        <mxCell id="Vge2jC_jCrwLIg9ijGN7-14" value="" style="endArrow=none;dashed=1;html=1;" edge="1" parent="1" target="Vge2jC_jCrwLIg9ijGN7-13">
          <mxGeometry width="50" height="50" relative="1" as="geometry">
            <mxPoint x="429.5" y="450" as="sourcePoint" />
            <mxPoint x="429.5" y="90" as="targetPoint" />
          </mxGeometry>
        </mxCell>
        <mxCell id="Vge2jC_jCrwLIg9ijGN7-15" value="JWT" style="text;html=1;strokeColor=none;fillColor=none;align=center;verticalAlign=middle;whiteSpace=wrap;rounded=0;" vertex="1" parent="1">
          <mxGeometry x="210" y="190" width="150" height="20" as="geometry" />
        </mxCell>
        <mxCell id="Vge2jC_jCrwLIg9ijGN7-16" value="" style="endArrow=classic;html=1;" edge="1" parent="1">
          <mxGeometry width="50" height="50" relative="1" as="geometry">
            <mxPoint x="120" y="260" as="sourcePoint" />
            <mxPoint x="430" y="260" as="targetPoint" />
            <Array as="points" />
          </mxGeometry>
        </mxCell>
        <mxCell id="Vge2jC_jCrwLIg9ijGN7-18" value="" style="endArrow=classic;html=1;" edge="1" parent="1">
          <mxGeometry width="50" height="50" relative="1" as="geometry">
            <mxPoint x="125" y="379" as="sourcePoint" />
            <mxPoint x="430" y="379" as="targetPoint" />
            <Array as="points" />
          </mxGeometry>
        </mxCell>
        <mxCell id="Vge2jC_jCrwLIg9ijGN7-19" value="" style="endArrow=classic;html=1;" edge="1" parent="1">
          <mxGeometry width="50" height="50" relative="1" as="geometry">
            <mxPoint x="430" y="320" as="sourcePoint" />
            <mxPoint x="120" y="320" as="targetPoint" />
            <Array as="points" />
          </mxGeometry>
        </mxCell>
        <mxCell id="Vge2jC_jCrwLIg9ijGN7-22" value="Show Candidates request" style="text;html=1;strokeColor=none;fillColor=none;align=center;verticalAlign=middle;whiteSpace=wrap;rounded=0;" vertex="1" parent="1">
          <mxGeometry x="180" y="240" width="160" height="20" as="geometry" />
        </mxCell>
        <mxCell id="Vge2jC_jCrwLIg9ijGN7-24" value="List of candidates" style="text;html=1;strokeColor=none;fillColor=none;align=center;verticalAlign=middle;whiteSpace=wrap;rounded=0;" vertex="1" parent="1">
          <mxGeometry x="140" y="300" width="230" height="20" as="geometry" />
        </mxCell>
        <mxCell id="Vge2jC_jCrwLIg9ijGN7-27" value="Click On Vote" style="text;html=1;strokeColor=none;fillColor=none;align=center;verticalAlign=middle;whiteSpace=wrap;rounded=0;" vertex="1" parent="1">
          <mxGeometry x="170" y="360" width="170" height="20" as="geometry" />
        </mxCell>
        <mxCell id="Vge2jC_jCrwLIg9ijGN7-28" value="" style="html=1;points=[];perimeter=orthogonalPerimeter;" vertex="1" parent="1">
          <mxGeometry x="425" y="410" width="10" height="40" as="geometry" />
        </mxCell>
        <mxCell id="Vge2jC_jCrwLIg9ijGN7-29" value="Voting Saved" style="edgeStyle=orthogonalEdgeStyle;html=1;align=left;spacingLeft=2;endArrow=block;rounded=0;entryX=1;entryY=0;" edge="1" target="Vge2jC_jCrwLIg9ijGN7-28" parent="1">
          <mxGeometry relative="1" as="geometry">
            <mxPoint x="430" y="390" as="sourcePoint" />
            <Array as="points">
              <mxPoint x="455" y="390" />
            </Array>
          </mxGeometry>
        </mxCell>
        <mxCell id="Vge2jC_jCrwLIg9ijGN7-31" value="" style="endArrow=classic;html=1;entryX=0.7;entryY=-0.033;entryDx=0;entryDy=0;entryPerimeter=0;" edge="1" parent="1" target="Vge2jC_jCrwLIg9ijGN7-13">
          <mxGeometry width="50" height="50" relative="1" as="geometry">
            <mxPoint x="700" y="148" as="sourcePoint" />
            <mxPoint x="540" y="170" as="targetPoint" />
            <Array as="points">
              <mxPoint x="560" y="148" />
            </Array>
          </mxGeometry>
        </mxCell>
        <mxCell id="Vge2jC_jCrwLIg9ijGN7-34" value="&lt;span style=&quot;color: rgb(0, 0, 0); font-family: helvetica; font-size: 12px; font-style: normal; font-weight: 400; letter-spacing: normal; text-align: center; text-indent: 0px; text-transform: none; word-spacing: 0px; background-color: rgb(248, 249, 250); display: inline; float: none;&quot;&gt;Enter Login and Password&lt;/span&gt;" style="text;whiteSpace=wrap;html=1;" vertex="1" parent="1">
          <mxGeometry x="490" y="120" width="170" height="30" as="geometry" />
        </mxCell>
        <mxCell id="Vge2jC_jCrwLIg9ijGN7-35" value="" style="endArrow=classic;html=1;exitX=0.5;exitY=1;exitDx=0;exitDy=0;exitPerimeter=0;" edge="1" parent="1" source="Vge2jC_jCrwLIg9ijGN7-13">
          <mxGeometry width="50" height="50" relative="1" as="geometry">
            <mxPoint x="490" y="220" as="sourcePoint" />
            <mxPoint x="700" y="210" as="targetPoint" />
          </mxGeometry>
        </mxCell>
        <mxCell id="Vge2jC_jCrwLIg9ijGN7-36" value="&lt;span style=&quot;color: rgb(0, 0, 0); font-family: helvetica; font-size: 12px; font-style: normal; font-weight: 400; letter-spacing: normal; text-align: center; text-indent: 0px; text-transform: none; word-spacing: 0px; background-color: rgb(248, 249, 250); display: inline; float: none;&quot;&gt;JWT&lt;/span&gt;" style="text;whiteSpace=wrap;html=1;" vertex="1" parent="1">
          <mxGeometry x="540" y="185" width="50" height="30" as="geometry" />
        </mxCell>
        <mxCell id="Vge2jC_jCrwLIg9ijGN7-37" value="" style="endArrow=classic;html=1;" edge="1" parent="1">
          <mxGeometry width="50" height="50" relative="1" as="geometry">
            <mxPoint x="700" y="260" as="sourcePoint" />
            <mxPoint x="430" y="260" as="targetPoint" />
            <Array as="points" />
          </mxGeometry>
        </mxCell>
        <mxCell id="Vge2jC_jCrwLIg9ijGN7-38" value="&lt;span style=&quot;color: rgb(0, 0, 0); font-family: helvetica; font-size: 12px; font-style: normal; font-weight: 400; letter-spacing: normal; text-align: center; text-indent: 0px; text-transform: none; word-spacing: 0px; background-color: rgb(248, 249, 250); display: inline; float: none;&quot;&gt;Show Candidates request&lt;/span&gt;" style="text;whiteSpace=wrap;html=1;" vertex="1" parent="1">
          <mxGeometry x="485" y="235" width="160" height="30" as="geometry" />
        </mxCell>
        <mxCell id="Vge2jC_jCrwLIg9ijGN7-39" value="" style="endArrow=classic;html=1;" edge="1" parent="1">
          <mxGeometry width="50" height="50" relative="1" as="geometry">
            <mxPoint x="700" y="320" as="sourcePoint" />
            <mxPoint x="430" y="320" as="targetPoint" />
          </mxGeometry>
        </mxCell>
        <mxCell id="Vge2jC_jCrwLIg9ijGN7-41" value="" style="endArrow=classic;html=1;" edge="1" parent="1">
          <mxGeometry width="50" height="50" relative="1" as="geometry">
            <mxPoint x="430" y="320" as="sourcePoint" />
            <mxPoint x="430" y="320" as="targetPoint" />
            <Array as="points" />
          </mxGeometry>
        </mxCell>
        <mxCell id="Vge2jC_jCrwLIg9ijGN7-42" value="Candidates or Voting Counts&lt;br&gt;" style="text;html=1;strokeColor=none;fillColor=none;align=center;verticalAlign=middle;whiteSpace=wrap;rounded=0;" vertex="1" parent="1">
          <mxGeometry x="460" y="350" width="190" height="20" as="geometry" />
        </mxCell>
        <mxCell id="Vge2jC_jCrwLIg9ijGN7-43" value="Show All Votes" style="text;html=1;strokeColor=none;fillColor=none;align=center;verticalAlign=middle;whiteSpace=wrap;rounded=0;" vertex="1" parent="1">
          <mxGeometry x="440" y="300" width="210" height="20" as="geometry" />
        </mxCell>
        <mxCell id="Vge2jC_jCrwLIg9ijGN7-44" value="" style="endArrow=classic;html=1;" edge="1" parent="1">
          <mxGeometry width="50" height="50" relative="1" as="geometry">
            <mxPoint x="430" y="370" as="sourcePoint" />
            <mxPoint x="700" y="370" as="targetPoint" />
            <Array as="points">
              <mxPoint x="510" y="370" />
            </Array>
          </mxGeometry>
        </mxCell>
      </root>
    </mxGraphModel>
  </diagram>
</mxfile>
